<?xml version="1.0" encoding="UTF-8"?>
<svg version="1.1" xmlns="http://www.w3.org/2000/svg" width="1132" height="251">
<path d="M0 0 C10.23 0 20.46 0 31 0 C39.12422596 34.13422385 47.11255793 68.29929588 55.05210495 102.47689438 C55.80328983 105.71035499 56.55471464 108.94375977 57.30618286 112.17715454 C60.33431615 125.20817321 63.35679239 138.24048931 66.37000275 151.27496719 C66.78472224 153.06882298 67.19958954 154.86264459 67.61461639 156.65642929 C68.74741297 161.55281341 69.87757094 166.44978993 71.00317955 171.34783173 C71.33325248 172.78275099 71.66410966 174.21749017 71.99588966 175.65201569 C80.52137693 212.53375006 80.52137693 212.53375006 80 222 C80.66 222 81.32 222 82 222 C82.20423584 220.23523315 82.20423584 220.23523315 82.41259766 218.43481445 C86.50953092 185.81540918 97.88165464 153.63322756 106.95246887 122.11257935 C110.28537455 110.52519659 113.57441579 98.92578244 116.84375 87.3203125 C117.08796 86.45346643 117.33216999 85.58662037 117.58378029 84.69350624 C119.04821965 79.49441403 120.51157368 74.29501678 121.97464371 69.09553909 C125.6426722 56.06169248 129.31569108 43.02925456 133 30 C133.19940437 29.29468895 133.39880875 28.5893779 133.60425568 27.86269379 C134.9264921 23.18735685 136.25315013 18.51329643 137.58203125 13.83984375 C138.08243172 12.07224449 138.08243172 12.07224449 138.59294128 10.26893616 C138.89718521 9.20170822 139.20142914 8.13448029 139.51489258 7.03491211 C139.77917557 6.1050499 140.04345856 5.17518768 140.31575012 4.21714783 C141 2 141 2 142 0 C154.54 0 167.08 0 180 0 C184.75634904 14.74249688 189.04088477 29.57597309 193.1875 44.5 C194.59571107 49.55392902 196.00633459 54.60718247 197.41796875 59.66015625 C197.60050076 60.31399355 197.78303276 60.96783085 197.97109604 61.6414814 C200.93406051 72.25123286 203.94971578 82.84527021 206.98828125 93.43359375 C219.10149565 135.67063918 229.80792974 177.60214757 237 221 C237.21044952 220.04292145 237.42089905 219.0858429 237.63772583 218.09976196 C243.71912627 190.50692332 250.30072492 163.05272081 257.07366943 135.62234116 C259.27437647 126.70411584 261.46610056 117.78367399 263.65991974 108.86375237 C264.49017928 105.48863246 265.32096112 102.11364142 266.15179443 98.73866272 C269.73391008 84.18228719 273.28819952 69.61936605 276.8203125 55.05078125 C277.27088145 53.19355722 277.72147314 51.33633871 278.17208862 49.47912598 C280.06336214 41.68252977 281.95271158 33.88548331 283.83511162 26.08673954 C284.58764139 22.97210047 285.34297722 19.85814701 286.09908676 16.74437523 C286.44617369 15.31213719 286.79197772 13.87958757 287.13641739 12.44671059 C287.60075392 10.51537513 288.06976201 8.58516455 288.5390625 6.6550293 C288.79896973 5.57924118 289.05887695 4.50345306 289.32666016 3.39506531 C290 1 290 1 291 0 C293.21855264 -0.08783542 295.43988496 -0.10694609 297.66015625 -0.09765625 C298.65685585 -0.09553383 298.65685585 -0.09553383 299.6736908 -0.09336853 C301.80333899 -0.08775518 303.93288339 -0.07520054 306.0625 -0.0625 C307.50325369 -0.05748671 308.94400903 -0.05292351 310.38476562 -0.04882812 C313.92321389 -0.03863087 317.4615923 -0.01967138 321 0 C318.34223029 11.66626954 315.37826954 23.21278509 312.16796875 34.73828125 C311.69848906 36.43360893 311.22933167 38.1290259 310.76046753 39.82452393 C309.76087719 43.43714973 308.75940402 47.04924574 307.75637817 50.66091919 C305.32993108 59.39879366 302.91394044 68.13956273 300.4967556 76.88000298 C299.65974248 79.90624412 298.82235609 82.93238181 297.98493958 85.95851135 C292.54876707 105.60783245 287.15933792 125.26985789 281.78108978 144.93510056 C280.82655935 148.42517625 279.87174962 151.91517552 278.91694832 155.40517712 C277.28884163 161.35625518 275.6608381 167.30736143 274.03317261 173.25856018 C269.57081744 189.57345965 265.09920986 205.8858184 260.62540817 222.19758224 C260.06601238 224.23719353 259.50664872 226.27681363 258.94729614 228.31643677 C256.96508116 235.54435074 254.98259166 242.77218932 253 250 C242.77 250 232.54 250 222 250 C216.12009943 230.13612682 210.62119803 210.18095731 205.17272568 190.19561768 C203.91998821 185.60260445 202.66471103 181.01028567 201.40942383 176.41796875 C201.02731011 175.02004089 201.02731011 175.02004089 200.63747692 173.59387207 C200.11854323 171.69545137 199.59959652 169.79703424 199.08063698 167.89862061 C198.29411856 165.02116565 197.50784129 162.14364489 196.72160339 159.26611328 C191.46018755 140.01239195 186.17391982 120.76552743 180.88066483 101.52053833 C180.20155382 99.05110358 179.52270814 96.58159606 178.84396362 94.11206055 C172.60074374 71.39741181 166.31599734 48.69451955 160 26 C159.82246185 26.73535477 159.64492371 27.47070953 159.46200562 28.22834778 C153.6505878 52.16828933 147.1348188 75.89145906 140.48680878 99.61072922 C139.01898265 104.85106173 137.55590923 110.09272115 136.09228516 115.33422852 C133.64673117 124.09006319 131.1982054 132.84506219 128.74804688 141.59960938 C125.29410796 153.9418931 121.85092794 166.28716266 118.40988541 178.6330471 C116.60264192 185.11616074 114.79399429 191.59888271 112.98519707 198.081563 C111.53821732 203.2675138 110.09168455 208.45358812 108.64630127 213.63998413 C107.29536133 218.4869721 105.94238133 223.33338603 104.5878067 228.17935944 C104.09080233 229.95866321 103.59450787 231.73816546 103.09896088 233.51787567 C102.42512083 235.9374981 101.74878297 238.35640821 101.07177734 240.77514648 C100.87460932 241.48540828 100.67744129 242.19567007 100.47429848 242.92745495 C99.11415521 247.77168957 99.11415521 247.77168957 98 250 C87.44 250 76.88 250 66 250 C60.81468314 232.23153367 56.08174107 214.35580991 51.37332153 196.45675659 C48.85606751 186.88765732 46.32994372 177.32089618 43.8046875 167.75390625 C43.40346396 166.23346805 43.40346396 166.23346805 42.9941349 164.68231392 C36.20352575 138.9514043 29.36114788 113.23427809 22.51558304 87.51794434 C21.57229807 83.97430838 20.62913438 80.43064016 19.68600464 76.88696289 C18.47669312 72.34318693 17.26720617 67.79945774 16.05757141 63.25576782 C14.91441584 58.96176852 13.77178657 54.66762971 12.62956238 50.37338257 C10.22490373 41.33555333 7.81507973 32.29927813 5.37841797 23.27001953 C4.81066246 21.16117742 4.24312599 19.05227648 3.67564201 16.94336128 C3.17095675 15.07289 2.66216332 13.20352867 2.1532135 11.33421326 C1.71760353 9.71580284 1.71760353 9.71580284 1.27319336 8.06469727 C1.02435898 7.14777603 0.7755246 6.2308548 0.51914978 5.28614807 C0 3 0 3 0 0 Z " fill="#B38A2D" transform="translate(140,1)"/>
<path d="M0 0 C59.07 0 118.14 0 179 0 C179 8.58 179 17.16 179 26 C129.5 26 80 26 29 26 C29 51.41 29 76.82 29 103 C76.19 103 123.38 103 172 103 C172 113.23 172 123.46 172 134 C124.81 134 77.62 134 29 134 C29 163.37 29 192.74 29 223 C80.48 223 131.96 223 185 223 C185 231.91 185 240.82 185 250 C123.62 250 62.24 250 -1 250 C-1 203 -1 203 6 193 C8.19478854 188.22872056 8.50894152 184.17423874 8 179 C5.45970984 176.18753589 3.76646609 175.94161652 0 175 C0 117.25 0 59.5 0 0 Z " fill="#B38A2D" transform="translate(947,1)"/>
<path d="M0 0 C10.89 0 21.78 0 33 0 C34.12535156 3.32707031 35.25070312 6.65414063 36.41015625 10.08203125 C45.51244701 36.9692579 54.68696883 63.82807411 64.10498047 90.60644531 C65.39448793 94.27366772 66.67964987 97.94237287 67.96142578 101.61230469 C76.41811495 125.82034395 85.12697198 149.92578369 94.125 173.9375 C94.56861877 175.12314545 95.01223755 176.30879089 95.46929932 177.53036499 C99.5491843 188.42166378 103.6422837 199.30457468 108.0546875 210.06640625 C108.48613571 211.12044899 108.48613571 211.12044899 108.92630005 212.19578552 C110.08741094 215.32953903 110.08741094 215.32953903 112 218 C112.2053537 217.43912186 112.4107074 216.87824371 112.62228394 216.30036926 C126.87881021 177.37474599 141.40186006 138.55408972 156.06054688 99.77832031 C158.64376015 92.94502951 161.22146183 86.10967219 163.796875 79.2734375 C173.76902404 52.81222629 183.86472598 26.39912894 194 0 C204.23 0 214.46 0 225 0 C224.29299073 3.53504636 223.62087926 6.28220982 222.35205078 9.56347656 C221.84239021 10.89023155 221.84239021 10.89023155 221.32243347 12.24378967 C220.95048355 13.19974533 220.57853363 14.15570099 220.1953125 15.140625 C219.80471146 16.15390366 219.41411041 17.16718231 219.01167297 18.21116638 C217.72000054 21.55895945 216.42254655 24.90447973 215.125 28.25 C214.21590301 30.60249518 213.30713489 32.95511748 212.39868164 35.30786133 C210.05653802 41.37030227 207.70936313 47.4307805 205.36029053 53.49053955 C204.07227082 56.81354601 202.78518712 60.13691297 201.49853516 63.46044922 C197.18354207 74.60588993 192.86237582 85.74892286 188.53656006 96.89016724 C184.18728933 108.09199068 179.8436617 119.29600066 175.5 130.5 C173.93104661 134.54689711 172.36204325 138.59377484 170.79296875 142.640625 C170.40336975 143.64545425 170.01377075 144.65028351 169.61236572 145.68556213 C167.12818628 152.09203789 164.6426194 158.49797385 162.15615845 164.90356445 C160.45094551 169.29666632 158.74620842 173.68995278 157.04150391 178.08325195 C156.23981914 180.14893593 155.43790917 182.21453253 154.63574219 184.2800293 C153.51307345 187.17082939 152.39111216 190.06190269 151.26953125 192.953125 C150.91484772 193.86690918 150.56016418 194.78069336 150.19473267 195.72216797 C148.34718649 200.49074058 146.51679393 205.26522332 144.70849609 210.04882812 C144.33947678 211.02406433 143.97045746 211.99930054 143.59025574 213.00408936 C142.88554217 214.86972637 142.18321781 216.73626809 141.4835968 218.6038208 C141.17149765 219.43033142 140.8593985 220.25684204 140.5378418 221.10839844 C140.12709663 222.20302399 140.12709663 222.20302399 139.70805359 223.31976318 C139 225 139 225 138 226 C125.63456584 228.09979071 113.30344095 226.90203372 101 225 C100.26007813 224.89236328 99.52015625 224.78472656 98.7578125 224.67382812 C96.57527693 224.33496076 94.41631019 223.92963978 92.25 223.5 C90.33960938 223.14421875 90.33960938 223.14421875 88.390625 222.78125 C83.22423999 220.06711225 82.10999093 216.28179929 80 211 C79.75586365 210.40314392 79.51172729 209.80628784 79.26019287 209.19134521 C77.1240673 203.96697259 75.09099104 198.70438182 73.0625 193.4375 C72.36845958 191.64585005 71.67402997 189.85435082 70.97924805 188.06298828 C69.05955475 183.10931499 67.14637436 178.15314721 65.23413086 173.19659424 C63.53565007 168.79726019 61.83272334 164.39965184 60.12997437 160.00196838 C43.00464121 115.76750296 26.03096985 71.47448554 9.3269043 27.07910156 C8.67503449 25.34828204 8.0231005 23.61748669 7.37109375 21.88671875 C7.0688237 21.08291779 6.76655365 20.27911682 6.4551239 19.45095825 C4.59666318 14.52534444 2.67287688 9.63421598 0.61352539 4.78833008 C0 3 0 3 0 0 Z " fill="#B38A2D" transform="translate(686,1)"/>
<path d="M0 0 C1.34888732 0.00015905 2.69778075 0.00584927 4.04663086 0.01586914 C5.10991859 0.01799156 5.10991859 0.01799156 6.19468689 0.02015686 C8.46699173 0.02577096 10.73919936 0.03832576 13.01147461 0.05102539 C14.54858257 0.05603858 16.08569206 0.0606018 17.62280273 0.06469727 C21.39823103 0.07574497 25.17358632 0.09301898 28.94897461 0.11352539 C34.64448611 11.96195683 39.8098511 24.01693941 44.93426514 36.12103271 C47.20345113 41.480653 49.4798637 46.83720102 51.75595093 52.19389343 C52.55080704 54.0647612 53.34535655 55.93575898 54.13989258 57.8067627 C59.33322946 70.03297273 64.56685036 82.24180004 69.80548096 94.44866943 C71.31546579 97.96868994 72.82370197 101.48945419 74.33129883 105.01049805 C78.53643545 114.83073191 82.7436101 124.64984882 86.98858643 134.45294189 C88.62373317 138.2323396 90.25172698 142.01479029 91.87823486 145.7979126 C92.62665847 147.53359269 93.37850751 149.26780022 94.13397217 151.00042725 C95.15518611 153.34309676 96.16477027 155.69044063 97.17163086 158.03930664 C97.47236008 158.72077255 97.77308929 159.40223846 98.08293152 160.10435486 C100.06298046 164.77150785 100.06298046 164.77150785 98.94897461 168.11352539 C94.92753351 167.15773067 90.9069352 166.19843547 86.88647461 165.23852539 C85.18587891 164.8344043 85.18587891 164.8344043 83.45092773 164.42211914 C81.79287109 164.02573242 81.79287109 164.02573242 80.10131836 163.62133789 C79.09061279 163.38044434 78.07990723 163.13955078 77.03857422 162.89135742 C76.01900635 162.63467285 74.99943848 162.37798828 73.94897461 162.11352539 C72.80042496 161.90483826 71.65187531 161.69615112 70.46852112 161.48114014 C66.94897461 160.11352539 66.94897461 160.11352539 65.03125 157.21853638 C64.50916978 155.97471646 64.01605553 154.71849026 63.54663086 153.45385742 C63.26734238 152.76742535 62.98805389 152.08099327 62.70030212 151.37376022 C61.77854356 149.09058198 60.89541806 146.79439256 60.01147461 144.49633789 C59.3647828 142.87323939 58.71564478 141.25111364 58.06420898 139.62991333 C56.69465713 136.20846458 55.34117757 132.78127508 54.00024414 129.34851074 C52.01240445 124.26263063 49.98390792 119.19378634 47.94506836 114.12817383 C44.25277311 104.94137616 40.60027014 95.73913319 36.956604 86.53295898 C35.59711986 83.100033 34.23481185 79.66823085 32.87240601 76.23646355 C31.20945614 72.04743238 29.5478098 67.85788464 27.88647461 63.66821289 C27.58459229 62.9070303 27.28270996 62.1458477 26.97167969 61.36159897 C22.58508553 50.29653357 18.25181745 39.21142042 13.94897461 28.11352539 C12.11681157 30.86176995 11.00781361 33.2297551 9.79663086 36.28149414 C9.36020264 37.3763916 8.92377441 38.47128906 8.47412109 39.59936523 C7.99144775 40.82091309 7.50877441 42.04246094 7.01147461 43.30102539 C6.48708719 44.62095722 5.96241923 45.94077762 5.4375 47.26049805 C3.93744228 51.03513963 2.44231117 54.81171693 0.94812012 58.58868408 C-0.09014097 61.21237047 -1.12951572 63.83561332 -2.16918945 66.45874023 C-7.38038493 79.60693631 -12.58345254 92.75834032 -17.78442383 105.9105835 C-19.48148691 110.20206284 -21.17865443 114.49350083 -22.87615967 118.7848053 C-23.71848866 120.91458867 -24.56049168 123.04450099 -25.40216064 125.17454529 C-27.44135342 130.33346158 -29.48661935 135.48978801 -31.54614258 140.640625 C-34.81931765 148.83933732 -38.08004451 157.02175551 -40.97290039 165.36352539 C-44.88103629 176.44248917 -47.62224909 184.00372044 -58.49243164 189.32836914 C-62.18122576 191.17883996 -65.19835582 193.37335895 -68.30102539 196.05102539 C-69.06576172 196.70590942 -69.06576172 196.70590942 -69.84594727 197.37402344 C-77.98042377 204.51640021 -85.48464174 212.3810722 -93.05102539 220.11352539 C-94.18720174 216.70499633 -93.98149923 216.27974015 -92.64599609 213.12841797 C-92.14088249 211.91675713 -92.14088249 211.91675713 -91.62556458 210.68061829 C-91.0569294 209.35770027 -91.0569294 209.35770027 -90.47680664 208.00805664 C-90.08615524 207.078134 -89.69550385 206.14821136 -89.29301453 205.19010925 C-87.99191696 202.09831807 -86.67760011 199.01232074 -85.36352539 195.92602539 C-84.4465007 193.75262275 -83.53050024 191.57878769 -82.61547852 189.40454102 C-80.71077027 184.88087446 -78.80163392 180.35911505 -76.8894043 175.83862305 C-72.98379417 166.59671021 -69.13164345 157.33265529 -65.27987671 148.06820679 C-63.20620747 143.08222367 -61.12838959 138.09796988 -59.05102539 133.11352539 C-58.21767256 131.11353351 -57.38433922 129.11353352 -56.55102539 127.11352539 C-38.78735352 84.48071289 -38.78735352 84.48071289 -21.02368164 41.84790039 C-20.637547 40.92106445 -20.25141235 39.99422852 -19.85357666 39.03930664 C-19.09116497 37.20974438 -18.32843495 35.38031473 -17.56536865 33.55102539 C-15.46199353 28.50733832 -13.3663484 23.46056337 -11.27856445 18.41040039 C-10.81946686 17.30224976 -10.36036926 16.19409912 -9.88735962 15.05236816 C-8.99534913 12.89898674 -8.10528736 10.74479684 -7.21737671 8.58972168 C-6.81781769 7.62626831 -6.41825867 6.66281494 -6.0065918 5.67016602 C-5.6525528 4.81314087 -5.29851379 3.95611572 -4.93374634 3.07312012 C-3.55199693 0.00570808 -3.58267688 0.13330757 0 0 Z " fill="#B38A2D" transform="translate(558.051025390625,-0.113525390625)"/>
<path d="M0 0 C49.63587078 29.44548751 104.95596706 47.85248259 162.48876953 33.87670898 C185.26486816 27.92417263 209.68753013 17.55843419 224.515625 -1.51171875 C224.92296875 -1.96160156 225.3303125 -2.41148437 225.75 -2.875 C226.41 -2.875 227.07 -2.875 227.75 -2.875 C222.69526771 14.46299366 207.13757266 30.4734952 191.83544922 39.21923828 C157.56771869 57.76888668 117.13448936 52.54537446 81.14160156 42.15039062 C61.2690738 36.14228404 42.45042874 28.07585971 23.97265625 18.68359375 C-2.13762858 5.41687818 -27.308029 -6.11781298 -56.25 -11.875 C-56.94528809 -12.01905273 -57.64057617 -12.16310547 -58.35693359 -12.31152344 C-97.89386036 -20.21262144 -138.56599914 -8.43552731 -173.25 10.125 C-174.38308594 10.72699219 -175.51617188 11.32898438 -176.68359375 11.94921875 C-189.11730503 18.80572774 -200.81795189 26.95841014 -212.10839844 35.55126953 C-226.45767118 46.42622557 -243.45461275 55.20412995 -261.8125 55.3125 C-262.90691406 55.32667969 -264.00132812 55.34085937 -265.12890625 55.35546875 C-268.24939486 55.12504469 -270.4366095 54.45048938 -273.25 53.125 C-269.89901924 50.89101283 -267.62692069 50.51735793 -263.6875 49.8125 C-253.96122206 47.79913042 -247.00519612 44.36308807 -239.84375 37.48046875 C-238.25 36.125 -238.25 36.125 -236.25 36.125 C-235.99992187 35.55910156 -235.74984375 34.99320312 -235.4921875 34.41015625 C-219.42489342 4.85239827 -176.4644869 -14.97596583 -145.90185547 -24.13183594 C-94.58877626 -38.51196972 -44.86094163 -26.65134156 0 0 Z " fill="#B2892D" transform="translate(698.25,189.875)"/>
<path d="M0 0 C5.94 0 11.88 0 18 0 C18 29.37 18 58.74 18 89 C12.39 89 6.78 89 1 89 C0.67 87.02 0.34 85.04 0 83 C-0.9590625 83.86625 -0.9590625 83.86625 -1.9375 84.75 C-7.96601386 89.17911222 -13.8641755 91.81459066 -21.453125 91.4375 C-28.40496641 90.24331865 -33.5107346 87.06545748 -37.9375 81.625 C-45.19696503 71.34218129 -46.03426171 60.26535366 -45 48 C-43.60358625 40.63088177 -41.6913691 34.05899476 -36 29 C-28.48479696 24.08414138 -22.01378516 22.02482441 -13 23 C-8.06603413 24.52862133 -4.66603087 26.33396913 -1 30 C-0.67 20.1 -0.34 10.2 0 0 Z M-20 39 C-24.81151565 43.54291162 -26.68044386 46.94409519 -27.203125 53.578125 C-27.32208782 60.35900579 -27.12704596 67.14423241 -22.67578125 72.6328125 C-19.39451228 75.64710158 -16.42761113 77 -12 77 C-7.32337607 75.31641538 -4.62252986 73.21478013 -2 69 C0.82719674 61.5954371 1.06340683 52.32965271 -1.82421875 44.87109375 C-4.38740536 40.82875597 -7.37378709 38.44980357 -11.9375 37.1875 C-15.48845437 36.97009463 -16.94910025 37.16946015 -20 39 Z " fill="#B38A2D" transform="translate(45,0)"/>
<path d="M0 0 C7.25305234 5.96362081 10.05933611 12.15708857 11.8125 21.3125 C11.8125 25.9325 11.8125 30.5525 11.8125 35.3125 C-1.7175 35.3125 -15.2475 35.3125 -29.1875 35.3125 C-27.13611814 43.80852929 -27.13611814 43.80852929 -23.5 46.875 C-19.18556262 48.74730301 -16.86333651 48.91583374 -12.1875 48.3125 C-9.12307181 46.05450028 -7.81341613 43.67743948 -6.1875 40.3125 C-0.334705 40.82732919 5.1422637 41.76607192 10.8125 43.3125 C10.4741096 48.72674642 7.48010246 52.54934878 3.8125 56.3125 C-5.10979217 62.83209616 -12.24027072 64.0320362 -23.1875 63.3125 C-30.73026821 61.79502 -37.20936097 58.2785965 -42.0234375 52.14453125 C-48.35947626 42.17271186 -49.52584692 30.65740565 -47 19.3125 C-44.34448322 9.53872297 -39.13365439 2.40188525 -30.31640625 -2.7890625 C-20.26685104 -7.26017438 -9.32646849 -4.93754214 0 0 Z M-25.1875 12.3125 C-28.60878096 16.45405064 -29.1875 17.78748497 -29.1875 23.3125 C-21.2675 23.3125 -13.3475 23.3125 -5.1875 23.3125 C-6.29575221 14.92843307 -6.29575221 14.92843307 -9.375 11.8125 C-15.23153259 8.68901595 -19.67064651 8.51200093 -25.1875 12.3125 Z " fill="#B28A2D" transform="translate(115.1875,27.6875)"/>
<path d="M0 0 C13.26478576 9.38430527 26.95348538 18.0296042 41.88134766 24.53662109 C44.70134185 25.76584933 47.43070823 27.12784679 50.16650391 28.53271484 C44.16069909 31.53561725 32.04266558 26.69912554 25.88183594 24.84521484 C9.41870261 19.25754312 -5.54535851 9.3052803 -19.39990234 -1.01806641 C-24.03797514 -4.42325244 -28.96096239 -7.41301579 -33.83349609 -10.46728516 C-33.46998047 -9.62431885 -33.10646484 -8.78135254 -32.73193359 -7.9128418 C-31.38869351 -4.7956207 -30.04706674 -1.6777158 -28.70654297 1.44067383 C-28.12516155 2.79219053 -27.54313162 4.14342845 -26.96044922 5.49438477 C-26.12477148 7.43221911 -25.29140366 9.37103228 -24.45849609 11.31005859 C-23.95576172 12.47786865 -23.45302734 13.64567871 -22.93505859 14.84887695 C-21.83349609 17.53271484 -21.83349609 17.53271484 -21.83349609 18.53271484 C-32.06349609 18.53271484 -42.29349609 18.53271484 -52.83349609 18.53271484 C-55.50632585 13.18705533 -58.01691779 7.92709381 -60.28662109 2.41943359 C-60.59170593 1.68320267 -60.89679077 0.94697174 -61.21112061 0.18843079 C-61.84786148 -1.35119786 -62.48304011 -2.89147348 -63.11669922 -4.43237305 C-64.08917156 -6.79356536 -65.07048797 -9.15095675 -66.05224609 -11.50830078 C-66.6725768 -13.01133363 -67.29238738 -14.51458128 -67.91162109 -16.01806641 C-68.35214813 -17.07275871 -68.35214813 -17.07275871 -68.80157471 -18.14875793 C-70.00014994 -21.08337121 -70.83349609 -23.26468734 -70.83349609 -26.46728516 C-91.08811886 -27.17768606 -107.85225661 -25.09714748 -126.51391602 -17.02197266 C-127.710448 -16.50570312 -127.710448 -16.50570312 -128.93115234 -15.97900391 C-129.99088257 -15.50660278 -129.99088257 -15.50660278 -131.07202148 -15.0246582 C-132.83349609 -14.46728516 -132.83349609 -14.46728516 -134.83349609 -15.46728516 C-87.45171494 -41.16695919 -42.13749364 -29.91607232 0 0 Z " fill="#B2892D" transform="translate(706.83349609375,211.46728515625)"/>
<path d="M0 0 C3.125 0.375 3.125 0.375 6 1 C6.84420575 8.59785172 4.66168731 13.03794729 0 19 C-9.24216783 29.49314619 -19.24559198 38.09518147 -32 44 C-32 43.01 -32 42.02 -32 41 C-29.83984375 39.01953125 -29.83984375 39.01953125 -26.9375 36.8125 C-15.60787874 27.78942135 -9.20739305 16.96303381 -3.04296875 3.9609375 C-2 2 -2 2 0 0 Z " fill="#AF872B" transform="translate(946,180)"/>
<path d="M0 0 C0 0.66 0 1.32 0 2 C-1.13953125 2.1959375 -2.2790625 2.391875 -3.453125 2.59375 C-13.73354468 4.49371452 -23.07292618 7.28150724 -32.67480469 11.4453125 C-33.4743457 11.78949219 -34.27388672 12.13367188 -35.09765625 12.48828125 C-36.15738647 12.96068237 -36.15738647 12.96068237 -37.23852539 13.44262695 C-39 14 -39 14 -41 13 C-8.86249193 -4.43124597 -8.86249193 -4.43124597 0 0 Z " fill="#AA8329" transform="translate(613,183)"/>
</svg>
